<svg width="28" height="62" viewBox="0 0 28 62" fill="none" xmlns="http://www.w3.org/2000/svg">
<path d="M2.57204 55.2054C2.57204 55.2054 2.76519 47.5974 2.57204 45.4236C2.3789 43.2499 2.86176 42.8319 2.57204 41.1598C2.28233 39.4877 0.448306 38.2337 0.544879 28.6191L0.541432 27.5323C0.541432 27.5323 0.346557 25.1077 1.60373 22.2652C2.8609 19.4226 2.76433 18.7538 3.24633 17.4997C3.72919 16.2456 4.98378 9.5573 6.62465 9.30643C8.26553 9.05562 8.74839 10.3097 8.16896 12.3162C7.59038 14.3227 7.2041 15.9948 7.2041 17.4997C7.2041 19.0046 7.30067 20.8439 5.56323 21.5127" stroke="#FEEBBB" stroke-miterlimit="10" stroke-linecap="round" stroke-linejoin="round"/>
<path d="M8.34558 11.5412C8.34558 11.5412 9.13455 8.41506 9.64932 6.68677C10.165 4.95915 10.5512 3.67698 12.2232 4.06693C13.8968 4.45688 13.1242 5.89687 12.7379 7.76893C12.3525 9.641 12.0955 12.3163 12.0955 12.929C12.0955 13.5423 12.0309 17.8898 11.1298 18.9486" stroke="#FEEBBB" stroke-miterlimit="10" stroke-linecap="round" stroke-linejoin="round"/>
<path d="M13.2563 5.46069C13.2563 5.46069 13.6392 3.50975 13.7047 2.72986C13.7694 1.95 13.8332 0.946077 15.6345 1.00226C17.4366 1.05777 17.5012 2.67437 17.3081 5.79582C17.1149 8.91727 17.2443 9.64159 17.1149 11.7037C16.9865 13.7657 16.0207 16.9427 15.9569 17.8349C15.9569 17.8349 15.8931 18.6709 15.8931 19.2842" stroke="#FEEBBB" stroke-miterlimit="10" stroke-linecap="round" stroke-linejoin="round"/>
<path d="M17.308 5.79524C17.308 5.79524 17.5011 4.12311 18.9161 4.34583C20.3319 4.56856 21.0398 5.28556 21.0398 9.27452C21.0398 13.2635 21.4261 15.2145 21.0398 18.4469C20.6535 21.6794 21.1899 22.7389 21.2114 24.4109" stroke="#FEEBBB" stroke-miterlimit="10" stroke-linecap="round" stroke-linejoin="round"/>
<path d="M17.9513 30.5419C17.9513 30.5419 18.9799 30.3747 19.6887 28.9815C20.3966 27.5883 20.9321 26.4734 21.2115 24.4114C21.49 22.3494 23.7422 19.3951 25.6081 19.2834C27.474 19.1717 27.474 20.1195 26.9593 21.0672C26.4436 22.0149 26.2505 22.962 25.9297 24.4669C25.6081 25.9718 24.9649 27.0867 24.8355 28.0338C24.7062 28.9809 24.7717 31.4295 24.7717 32.2401C24.7717 33.0507 24.2561 33.5517 23.0343 34.7222C21.8116 35.8926 19.731 38.7907 19.2593 39.2924C18.7877 39.794 18.0789 40.1283 17.3072 40.63C16.5346 41.1316 15.8913 42.3576 16.0845 45.7018C16.2776 49.046 15.887 52.0558 16.05 54.285C16.2129 56.5142 16.7924 60.0818 16.9847 60.7506" stroke="#FEEBBB" stroke-miterlimit="10" stroke-linecap="round" stroke-linejoin="round"/>
<path d="M19.4947 29.3174C19.4947 29.3174 18.8359 28.1597 17.8219 28.2848" stroke="#FEEBBB" stroke-miterlimit="10" stroke-linecap="round" stroke-linejoin="round"/>
</svg>
