<svg width="31" height="61" viewBox="0 0 31 61" fill="none" xmlns="http://www.w3.org/2000/svg">
<path d="M2.84519 60.0059C2.84519 60.0059 3.33929 44.9287 3.53693 42.897C3.73458 40.8653 3.24047 38.7267 3.53693 35.9465C3.53693 35.9465 3.78282 34.5564 3.21518 32.097C2.64754 29.6376 0.967654 26.5366 1.56058 18.5168C1.56058 18.5168 1.50837 16.77 1.43565 16.1284C1.36294 15.4869 1.42855 14.4885 1.75822 13.7759C2.08783 13.0633 2.54872 10.9958 4.12986 9.99742C5.711 8.99916 7.59961 7.41654 9.26849 8.50036C9.26849 8.50036 9.86135 8.71423 10.191 11.2806C10.5207 13.8469 10.7183 14.2747 10.8496 14.9162C10.8496 14.9162 11.3769 17.6254 11.6401 19.0506C11.9034 20.4766 12.6805 23.6127 14.5984 23.3278C14.5984 23.3278 16.1273 23.3184 16.3218 21.256" stroke="#F9BF2E" stroke-miterlimit="10" stroke-linecap="round" stroke-linejoin="round"/>
<path d="M5.31555 12.065C5.31555 12.065 5.55905 13.0632 6.12901 14.3464C6.69905 15.6296 7.35758 16.6989 7.95051 18.4098C8.54337 20.1207 9.53158 22.9009 11.508 22.687C11.508 22.687 12.1665 22.687 12.2985 21.8316" stroke="#F9BF2E" stroke-miterlimit="10" stroke-linecap="round" stroke-linejoin="round"/>
<path d="M13.8457 5.08211C12.9777 4.61075 11.5081 4.81175 10.5199 5.2925C9.20203 5.9341 9.03125 8.3704 9.03125 8.3704M13.8457 5.08211C13.8457 5.08211 14.9406 2.44134 16.321 2.22746C17.7013 2.01361 18.6017 2.17613 19.5457 3.36779C20.4896 4.55943 20.0729 8.13605 20.0729 8.13605C20.0729 8.13605 19.9409 10.4962 20.0729 12.9205C20.2049 15.3448 20.0144 19.4074 20.0144 19.4074C20.0144 19.4074 20.1196 21.617 17.8989 21.8308C17.8989 21.8308 16.1201 21.8368 15.7905 20.3338C15.4806 18.9189 15.3296 17.9608 15.1976 16.7692C15.079 15.6982 14.8023 13.1335 14.7367 10.4962C14.6711 7.85889 14.9343 7.07442 14.4735 5.79123C14.3572 5.47132 14.1351 5.23948 13.8457 5.08211Z" stroke="#F9BF2E" stroke-miterlimit="10" stroke-linecap="round" stroke-linejoin="round"/>
<path d="M19.8896 4.07512C19.8896 4.07512 20.9291 2.44118 22.313 2.65504C23.6962 2.86891 25.3426 4.36597 25.1451 7.57387C24.9476 10.7818 24.2888 12.065 24.2225 14.8451C24.1562 17.6254 22.8392 19.1934 21.6535 19.2652C20.4675 19.3362 20.145 18.6647 20.077 17.6621" stroke="#F9BF2E" stroke-miterlimit="10" stroke-linecap="round" stroke-linejoin="round"/>
<path d="M18.0301 56.3344C18.0301 56.3344 17.8325 46.4258 18.0301 43.3599C18.2277 40.2948 18.0957 38.8688 18.3598 36.873C18.623 34.8773 18.623 35.8311 18.6895 34.0706C18.7558 32.3101 19.8752 30.9559 20.4682 30.5992C21.0611 30.2424 22.5099 28.7455 23.6307 26.8925C24.7508 25.0388 26.4628 23.3998 27.3854 22.4014C28.308 21.4032 28.308 21.3321 28.6367 18.481C28.9668 15.6298 29.2955 11.6947 29.5593 10.9531C29.8231 10.2113 29.8894 9.76742 29.5593 8.13607C29.2299 6.50472 29.0324 5.2216 29.1643 3.86653C29.2962 2.51234 29.6249 1.01535 28.7037 0.872489C27.7811 0.729624 25.8019 0.951187 25.1445 6.57571C25.1445 6.57571 25.0139 10.0685 27.0567 10.2824" stroke="#F9BF2E" stroke-miterlimit="10" stroke-linecap="round" stroke-linejoin="round"/>
<path d="M6.68865 15.5209C6.68865 15.5209 4.52491 15.6972 3.14148 15.5209" stroke="#F9BF2E" stroke-miterlimit="10" stroke-linecap="round" stroke-linejoin="round"/>
<path d="M6.12933 14.3465C6.12933 14.3465 4.5253 13.562 3.93237 12.7066" stroke="#F9BF2E" stroke-miterlimit="10" stroke-linecap="round" stroke-linejoin="round"/>
</svg>
