<svg width="27" height="59" viewBox="0 0 27 59" fill="none" xmlns="http://www.w3.org/2000/svg">
<path d="M2.62012 55.9181C2.62012 55.9181 2.31493 50.258 2.62012 46.5195C2.92463 42.7817 2.62011 39.6845 1.90801 37.7622C1.19658 35.8398 0.281701 30.5004 1.90801 22.4905C3.53499 14.4805 3.53499 17.4709 4.55093 11.7039C5.56686 5.93694 6.07618 0.597244 8.10873 1.02396C10.1419 1.45139 8.31218 5.72319 8.10873 7.00426C7.90595 8.28605 8.007 10.8489 7.60076 13.84C7.19453 16.8304 8.3122 18.3252 8.3122 18.3252" stroke="#FEEBBB" stroke-miterlimit="10" stroke-linecap="round" stroke-linejoin="round"/>
<path d="M13.2936 23.131C13.0141 20.3003 13.0392 17.7374 13.0392 17.7374C13.0392 14.5333 12.2003 14.5333 10.7517 14.6138C9.30374 14.6936 7.61707 16.3915 7.61707 16.3915" stroke="#FEEBBB" stroke-miterlimit="10" stroke-linecap="round" stroke-linejoin="round"/>
<path d="M12.1318 14.7328C12.1318 14.7328 13.0908 12.5582 14.5645 12.6651C16.0382 12.772 17.2583 13.3833 17.2583 14.7328C17.2583 16.0822 16.9029 17.6312 16.6486 20.1941C16.3943 22.7576 16.5977 27.1894 16.5977 27.1894C16.5977 27.1894 16.8012 29.3789 14.9714 29.272C13.141 29.1652 12.9382 27.6703 13.0393 26.3358C13.0393 26.3358 13.2936 24.8403 13.2936 23.1317" stroke="#FEEBBB" stroke-miterlimit="10" stroke-linecap="round" stroke-linejoin="round"/>
<path d="M8.66821 19.6069C8.66821 19.6069 9.17618 22.4099 9.40541 23.2378C9.63396 24.0658 9.32876 28.7647 11.0317 28.9785C12.7346 29.1915 13.027 28.8701 13.0202 26.9749" stroke="#FEEBBB" stroke-miterlimit="10" stroke-linecap="round" stroke-linejoin="round"/>
<path d="M16.5562 26.0123C16.5562 26.0123 16.4959 27.6162 18.0462 27.5635C19.5966 27.51 20.1812 26.0943 20.3338 24.8132C20.4857 23.5314 20.7651 21.2621 20.9692 20.5147C21.1042 20.0202 21.4162 18.4036 21.6122 17.3662C21.7119 16.8353 21.7824 16.4563 21.7824 16.4563C21.7824 16.4563 22.1378 14.4542 19.8502 13.7602C17.5634 13.0662 17.2514 15.0434 17.2514 15.0434" stroke="#FEEBBB" stroke-miterlimit="10" stroke-linecap="round" stroke-linejoin="round"/>
<path d="M21.8014 16.2154C21.8014 16.2154 23.8143 13.3319 24.8567 13.3319C25.8984 13.3319 26.4321 14.1599 25.5688 15.8948C24.7041 17.6305 25.0852 19.7665 25.0852 19.7665C25.0852 19.7665 25.1869 20.8082 24.9075 21.956C24.6274 23.1046 24.2212 26.6821 24.1954 28.0436C24.1696 29.4052 24.2463 29.9132 23.1279 30.8203C22.0103 31.728 19.697 33.837 18.8845 34.8252C18.0713 35.8135 17.4101 36.6143 16.1399 37.7621C14.8689 38.91 15.2752 40.5388 15.2752 41.5797C15.2752 42.6207 15.7831 49.8832 15.8089 52.7938C15.8347 55.7036 16.4694 58 16.4694 58" stroke="#FEEBBB" stroke-miterlimit="10" stroke-linecap="round" stroke-linejoin="round"/>
<path d="M6.44519 20.9685C6.44519 20.9685 7.52014 21.8292 9.06031 21.6654" stroke="#FEEBBB" stroke-miterlimit="10" stroke-linecap="round" stroke-linejoin="round"/>
<path d="M21.3226 18.8623C21.3226 18.8623 21.3769 19.9945 21.8014 20.588" stroke="#FEEBBB" stroke-miterlimit="10" stroke-linecap="round" stroke-linejoin="round"/>
</svg>
