<svg width="32" height="61" viewBox="0 0 32 61" fill="none" xmlns="http://www.w3.org/2000/svg">
<path d="M6.56812 18.0438C7.84883 18.3766 10.1294 18.4601 10.8982 18.4601C11.6664 18.4601 12.973 18.543 14.741 18.4601C16.5083 18.3766 17.1234 17.379 17.2771 15.1331C17.2771 15.1331 17.3537 13.1372 15.7402 12.9294C14.1259 12.7223 7.86248 12.9294 7.86248 12.9294C7.86248 12.9294 7.43947 12.953 6.97817 12.8369" stroke="#FEEBBB" stroke-miterlimit="10" stroke-linecap="round" stroke-linejoin="round"/>
<path d="M27.0459 7.73433C27.0459 7.73433 28.7277 6.8166 28.0108 5.04253C27.2939 3.26771 24.4243 3.0466 23.0411 2.60289C21.6579 2.15919 16.7899 0.994468 14.7404 1.05067C12.6908 1.10539 10.2825 2.04827 7.46478 2.99114C7.46478 2.99114 6.43967 3.37938 5.67152 3.54503C4.90268 3.71142 3.26318 4.26605 3.0069 6.48383C2.7513 8.70234 1.93122 8.82436 1.41866 9.28951C0.906786 9.75466 0.240463 10.7841 0.958044 12.8199C1.67562 14.8558 1.72619 14.8558 1.57242 16.6299C1.41865 18.4032 2.85313 18.5703 3.4682 21.4529C3.4682 21.4529 3.98076 24.655 4.82614 27.2336C4.82614 27.2336 5.36399 28.5226 5.44054 29.5623C5.51776 30.6013 5.44052 31.3083 5.63256 32.1824C5.8246 33.0558 6.12051 33.4344 6.36312 34.0948C6.85723 35.4459 7.28505 37.2554 7.37389 37.7546C7.46205 38.253 7.46478 44.1861 7.46478 44.1861C7.25976 49.5083 7.46478 56.7163 7.46478 56.7163" stroke="#FEEBBB" stroke-miterlimit="10" stroke-linecap="round" stroke-linejoin="round"/>
<path d="M10.6414 23.6721C10.6414 23.6721 11.4785 24.615 14.4158 23.9494C17.3531 23.2839 17.6094 21.7317 17.7119 20.6779C17.8151 19.6248 17.7201 18.3824 15.3623 18.3824" stroke="#FEEBBB" stroke-miterlimit="10" stroke-linecap="round" stroke-linejoin="round"/>
<path d="M12.5371 24.1869C12.5371 24.1869 12.1782 25.6681 9.82117 26.6657" stroke="#FEEBBB" stroke-miterlimit="10" stroke-linecap="round" stroke-linejoin="round"/>
<path d="M18.5832 12.5552C18.5832 12.5552 19.0336 17.7621 17.7125 20.6772" stroke="#FEEBBB" stroke-miterlimit="10" stroke-linecap="round" stroke-linejoin="round"/>
<path d="M16.7004 22.9186C16.7004 22.9186 16.6231 23.0776 16.0463 25.4255C15.4696 27.7734 15.7771 29.9365 15.7771 32.2652C15.7771 34.5939 16.7762 40.2489 17.4679 43.2432C18.1595 46.2367 19.8892 54.1376 20.8876 56.2999C21.8861 58.4622 22.4629 60.2089 22.4629 60.2089" stroke="#FEEBBB" stroke-miterlimit="10" stroke-linecap="round" stroke-linejoin="round"/>
<path d="M12.5364 12.8376C12.5364 12.8376 15.9186 12.8043 16.9942 12.5551C18.0706 12.3052 22.6816 12.527 24.0142 12.5551C25.3469 12.5832 29.5478 12.7489 30.5729 11.5849C31.5981 10.4209 31.2386 8.31332 29.7535 8.20313C28.2671 8.09221 25.3981 7.59304 24.6806 7.59304C23.963 7.59304 21.3496 7.33643 19.4675 7.0251C18.29 6.82987 16.2774 6.27598 15.0096 6.15174C13.7419 6.0275 13.1555 6.52445 11.9274 6.73374C10.0966 7.04581 10.5934 7.06947 9.05302 7.19075C7.97118 7.27727 7.31238 7.24399 7.31238 7.24399" stroke="#FEEBBB" stroke-miterlimit="10" stroke-linecap="round" stroke-linejoin="round"/>
</svg>
