<svg width="25" height="56" viewBox="0 0 25 56" fill="none" xmlns="http://www.w3.org/2000/svg">
<path d="M3.13931 54.9925C3.13931 54.9925 3.45886 46.8605 3.45886 46.407C3.45886 45.9529 3.45886 43.7337 3.45886 43.7337C3.45886 43.7337 3.40597 42.8262 2.92556 42.0701C2.44587 41.3132 0.685093 38.1865 0.577859 33.7995C0.471341 29.4118 0.577859 30.2693 0.577859 30.2693C0.577859 30.2693 0.577867 27.6974 0.951754 26.9412C1.32493 26.1844 1.16479 25.5532 1.69881 24.7342C2.23212 23.9152 2.65891 22.6542 3.77914 22.5029C4.89938 22.3515 5.70005 22.5529 5.91309 23.2591C6.12613 23.9652 6.52574 25.6208 7.05976 26.5784C7.05976 26.5784 7.67386 27.4954 7.80754 28.1508C7.94051 28.8063 7.83399 30.193 9.5147 30.193" stroke="#FEEBBB" stroke-miterlimit="10" stroke-linecap="round" stroke-linejoin="round"/>
<path d="M2.47229 25.6174C2.47229 25.6174 3.47242 27.3575 4.23306 28.1894C4.99299 29.0219 4.87289 29.4375 5.31326 30.4214C5.75363 31.4053 6.39417 32.502 7.91403 32.0858C9.43388 31.6695 8.16066 29.6807 8.05486 29.355" stroke="#FEEBBB" stroke-miterlimit="10" stroke-linecap="round" stroke-linejoin="round"/>
<path d="M9.51402 31.0262C9.51402 31.0262 10.1346 29.23 10.2346 28.5299C10.334 27.8305 9.56692 26.6892 8.90065 26.1094C8.47815 25.7424 7.62672 24.8275 7.00548 23.5969C6.64661 22.886 6.36494 22.0697 6.28702 21.1926C6.07398 18.7977 6.74026 17.9402 7.40725 17.7388C8.07424 17.5367 8.79413 17.9152 9.96798 20.058C9.96798 20.058 10.4484 20.8648 11.4085 21.798C12.3686 22.7313 12.4222 23.3361 12.849 23.9659C13.2758 24.597 14.8764 26.9419 16.2633 28.2522C17.6502 29.5638 17.41 30.6727 17.3299 34.0015C17.2506 37.3296 16.4499 39.221 16.1568 39.7502C15.8637 40.2799 15.8101 41.3388 15.8901 44.6926C15.9695 48.0464 16.1832 55.106 16.1832 55.106" stroke="#FEEBBB" stroke-miterlimit="10" stroke-linecap="round" stroke-linejoin="round"/>
<path d="M5.32611 22.4562C5.32611 22.4562 4.57334 18.9984 5.56275 18.52C6.55216 18.0409 6.73302 18.2463 6.73302 18.2463" stroke="#FEEBBB" stroke-miterlimit="10" stroke-linecap="round" stroke-linejoin="round"/>
<path d="M9.00852 18.5558C9.00852 18.5558 8.68683 16.8299 8.52669 15.721C8.36656 14.6114 8.44663 13.5018 8.20642 11.2076C7.96622 8.91345 7.77963 8.38367 7.59305 7.12271C7.40646 5.86242 7.32639 5.18126 7.16626 4.12235C7.00612 3.06345 6.55432 1.37405 8.08704 1.09699C9.62048 0.819926 10.607 1.57609 11.1939 5.66103C11.7816 9.7453 12.3678 10.1494 12.7681 12.9984C13.1678 15.8474 13.2478 17.4868 13.2478 17.9409C13.2478 18.3943 13.3014 19.0755 14.6083 19.0755C15.9158 19.0755 15.9959 18.445 16.4219 17.3854C16.8487 16.3265 17.4893 14.4857 18.0497 13.2504C18.6095 12.0158 19.2229 10.0737 19.5696 8.73775C19.917 7.40111 20.1572 3.92164 22.3705 4.47576C24.5845 5.03056 23.1176 9.06482 22.8509 10.4015C22.5843 11.7381 22.2905 14.7135 21.2775 17.5881C20.2637 20.4621 19.8634 21.1683 19.6768 22.9333C19.4902 24.6984 19.0098 27.3203 19.0634 28.4549C19.1171 29.5895 18.3986 32.2628 17.397 33.6245" stroke="#FEEBBB" stroke-miterlimit="10" stroke-linecap="round" stroke-linejoin="round"/>
</svg>
