<?xml version="1.0" encoding="UTF-8" standalone="no"?>
<svg
   xmlns:dc="http://purl.org/dc/elements/1.1/"
   xmlns:cc="http://creativecommons.org/ns#"
   xmlns:rdf="http://www.w3.org/1999/02/22-rdf-syntax-ns#"
   xmlns:svg="http://www.w3.org/2000/svg"
   xmlns="http://www.w3.org/2000/svg"
   xmlns:sodipodi="http://sodipodi.sourceforge.net/DTD/sodipodi-0.dtd"
   xmlns:inkscape="http://www.inkscape.org/namespaces/inkscape"
   inkscape:version="1.0 (4035a4f, 2020-05-01)"
   sodipodi:docname="7 copia.svg"
   id="svg885"
   version="1.1"
   fill="none"
   viewBox="0 0 34 60"
   height="60"
   width="34">
  <metadata
     id="metadata891">
    <rdf:RDF>
      <cc:Work
         rdf:about="">
        <dc:format>image/svg+xml</dc:format>
        <dc:type
           rdf:resource="http://purl.org/dc/dcmitype/StillImage" />
      </cc:Work>
    </rdf:RDF>
  </metadata>
  <defs
     id="defs889" />
  <sodipodi:namedview
     inkscape:current-layer="svg885"
     inkscape:window-maximized="1"
     inkscape:window-y="25"
     inkscape:window-x="0"
     inkscape:cy="42.440253"
     inkscape:cx="-1.3085064"
     inkscape:zoom="4.3170675"
     showgrid="false"
     id="namedview887"
     inkscape:window-height="940"
     inkscape:window-width="1680"
     inkscape:pageshadow="2"
     inkscape:pageopacity="0"
     guidetolerance="10"
     gridtolerance="10"
     objecttolerance="10"
     borderopacity="1"
     bordercolor="#666666"
     pagecolor="#ffffff" />
  <path
     style="fill:none;stroke:#f9bf2e;stroke-width:0.51532;stroke-linecap:round;stroke-linejoin:round;stroke-miterlimit:10"
     class="st0"
     d="m 6.06333,53.038833 c 0,0 1.215891,-10.902702 1.683542,-14.650506 C 8.214523,34.640523 8.5418791,31.176644 8.4015838,29.643452 8.214523,28.167044 7.419517,26.349927 6.998632,25.157444 6.577746,23.964961 6.15686,20.728222 6.110095,20.046803 6.016565,19.365384 5.782739,18.797535 5.923034,17.207558 6.06333,15.617581 6.016564,14.538667 6.62451,13.402969 c 0.607946,-1.078913 1.636779,-1.589977 2.2914898,-0.511064 0.6547113,1.022128 1.2158922,2.328181 1.4497182,3.0096 0.233825,0.681419 0.841771,3.463879 0.18706,3.634234 C 9.8980668,19.706094 9.477181,19.933233 8.5886442,18.059332 7.700107,16.128645 7.606577,16.810064 7.092161,15.73115"
     id="path835" />
  <path
     style="fill:none;stroke:#f9bf2e;stroke-width:0.51532;stroke-linecap:round;stroke-linejoin:round;stroke-miterlimit:10"
     class="st0"
     d="m 6.951866,16.866848 c 0,0 0.467651,0.170355 0.935302,-0.05679"
     id="path837" />
  <path
     style="fill:none;stroke:#f9bf2e;stroke-width:0.51532;stroke-linecap:round;stroke-linejoin:round;stroke-miterlimit:10"
     class="st0"
     d="m 8.6354093,12.607981 c 0,0 0.2805905,-1.760332 0.514416,-2.101042 0.2805906,-0.340709 1.2158927,-0.7949884 1.7770737,-0.6246336 0.514416,0.1135697 0.795006,0.8517736 0.795006,0.8517736"
     id="path839" />
  <path
     style="fill:none;stroke:#f9bf2e;stroke-width:0.51532;stroke-linecap:round;stroke-linejoin:round;stroke-miterlimit:10"
     class="st0"
     d="m 12.423382,9.0305326 c -0.280591,0.170354 -0.701477,1.2492674 -0.514416,2.4417504 0.18706,1.192483 1.122362,5.224211 1.449718,5.962415 0.327355,0.794988 0.561181,1.078913 1.215892,0.965343 0.654711,-0.05679 1.169127,-1.419623 1.028832,-2.89603 -0.140295,-1.249268 -0.514416,-2.78246 -0.514416,-3.861374 -0.04676,-1.078913 -0.140295,-2.157826 -0.140295,-2.157826 0,0 -0.795007,-1.5899774 -2.525315,-0.4542784 z"
     id="path841" />
  <path
     style="fill:none;stroke:#f9bf2e;stroke-width:0.51532;stroke-linecap:round;stroke-linejoin:round;stroke-miterlimit:10"
     class="st0"
     d="m 10.646308,17.491482 c 0.233826,0.851774 0.607946,1.987472 1.309423,1.760332 0.701476,-0.227139 1.262657,-1.078913 0.982067,-3.179954"
     id="path843" />
  <path
     style="fill:none;stroke:#f9bf2e;stroke-width:0.51532;stroke-linecap:round;stroke-linejoin:round;stroke-miterlimit:10"
     class="st0"
     d="m 14.901932,9.541596 c 0,0 0.140295,-1.3628384 0.654711,-1.5331924 0.514416,-0.22714 1.590013,-0.340709 2.104429,0.624634 0.514416,0.9653433 0.888537,1.5899774 1.122362,4.2020824 0.233826,2.612106 0.18706,2.952815 0.607946,3.634234 0.420886,0.681419 0.514416,0.738204 0.514416,0.738204 0,0 1.075597,-0.05678 1.636779,-0.567849 0.561181,-0.511064 2.057663,-2.78246 3.834737,-3.520664 1.777073,-0.738204 2.431785,-0.397494 2.946201,0.05678 0.467651,0.454279 0.654711,1.192483 0.327356,1.476407 -0.327356,0.283925 -1.590014,1.192483 -2.29149,1.987472 -0.701476,0.794989 -1.402953,1.760332 -1.870604,2.214611 -0.467651,0.454279 -1.636778,2.271396 -1.870603,2.612106 -0.187061,0.397494 -1.590014,1.817117 -2.431785,2.89603 -0.841772,1.078913 -2.712375,2.214611 -2.899436,5.848845 -0.18706,3.634234 0.140295,20.158641 0.374121,22.770746"
     id="path845" />
  <path
     style="fill:none;stroke:#f9bf2e;stroke-width:0.51532;stroke-linecap:round;stroke-linejoin:round;stroke-miterlimit:10"
     class="st0"
     d="m 15.463113,14.822592 c 0.28059,1.249268 1.028832,2.66889 1.496483,2.441751 0.46765,-0.22714 1.496482,-0.34071 1.262657,-4.486008"
     id="path847" />
</svg>
