<?xml version="1.0" encoding="UTF-8" standalone="no"?>
<svg
   xmlns:dc="http://purl.org/dc/elements/1.1/"
   xmlns:cc="http://creativecommons.org/ns#"
   xmlns:rdf="http://www.w3.org/1999/02/22-rdf-syntax-ns#"
   xmlns:svg="http://www.w3.org/2000/svg"
   xmlns="http://www.w3.org/2000/svg"
   xmlns:sodipodi="http://sodipodi.sourceforge.net/DTD/sodipodi-0.dtd"
   xmlns:inkscape="http://www.inkscape.org/namespaces/inkscape"
   width="38"
   height="61"
   viewBox="0 0 38 61"
   fill="none"
   version="1.1"
   id="svg847"
   sodipodi:docname="6.svg"
   inkscape:version="1.0 (4035a4f, 2020-05-01)">
  <metadata
     id="metadata853">
    <rdf:RDF>
      <cc:Work
         rdf:about="">
        <dc:format>image/svg+xml</dc:format>
        <dc:type
           rdf:resource="http://purl.org/dc/dcmitype/StillImage" />
        <dc:title></dc:title>
      </cc:Work>
    </rdf:RDF>
  </metadata>
  <defs
     id="defs851" />
  <sodipodi:namedview
     inkscape:document-rotation="0"
     pagecolor="#ffffff"
     bordercolor="#666666"
     borderopacity="1"
     objecttolerance="10"
     gridtolerance="10"
     guidetolerance="10"
     inkscape:pageopacity="0"
     inkscape:pageshadow="2"
     inkscape:window-width="1325"
     inkscape:window-height="857"
     id="namedview849"
     showgrid="false"
     inkscape:zoom="5.6717591"
     inkscape:cx="10.973983"
     inkscape:cy="22.478348"
     inkscape:window-x="0"
     inkscape:window-y="25"
     inkscape:window-maximized="0"
     inkscape:current-layer="svg847" />
  <path
     d="m 3.0215021,52.777102 c 0,0 0.4941,-15.0772 0.69174,-17.1089 0.19765,-2.0317 -0.4727721,3.058498 -0.1763121,0.278298 0,0 0.24589,-1.3901 -0.32175,-3.8495 -0.56764,-2.4594 -2.247526,-5.5604 -1.6546,-13.5802 0,0 -0.05221,-1.7468 -0.12493,-2.3884 C 1.36294,15.4869 1.42855,14.4885 1.75822,13.7759 2.08783,13.0633 2.54872,10.9958 4.12986,9.99742 5.711,8.99916 7.59961,7.41654 9.26849,8.50036 c 0,0 0.59286,0.21387 0.92251,2.78024 0.3297,2.5663 0.5273,2.9941 0.6586,3.6356 0,0 0.5273,2.7092 0.7905,4.1344 0.2633,1.426 1.0404,4.5621 2.9583,4.2772 0,0 1.5289,-0.0094 1.7234,-2.0718"
     stroke="#f9bf2e"
     stroke-miterlimit="10"
     stroke-linecap="round"
     stroke-linejoin="round"
     id="path833"
     sodipodi:nodetypes="cccscscccccccc" />
  <path
     d="m 5.31555,12.065 c 0,0 0.2435,0.9982 0.81346,2.2814 0.57004,1.2832 1.22857,2.3525 1.8215,4.0634 0.59286,1.7109 1.58107,4.4911 3.55749,4.2772 0,0 0.6585,0 0.7905,-0.8554"
     stroke="#f9bf2e"
     stroke-miterlimit="10"
     stroke-linecap="round"
     stroke-linejoin="round"
     id="path835" />
  <path
     d="M 13.8457,5.08211 C 12.9777,4.61075 11.5081,4.81175 10.5199,5.2925 9.20203,5.9341 9.03125,8.3704 9.03125,8.3704 M 13.8457,5.08211 c 0,0 1.0949,-2.64077 2.4753,-2.85465 1.3803,-0.21385 2.2807,-0.05133 3.2247,1.14033 0.9439,1.19164 0.5272,4.76826 0.5272,4.76826 0,0 -0.132,2.36015 0,4.78445 0.132,2.4243 -0.0585,6.4869 -0.0585,6.4869 0,0 0.1052,2.2096 -2.1155,2.4234 0,0 -1.7788,0.006 -2.1084,-1.497 -0.3099,-1.4149 -0.4609,-2.373 -0.5929,-3.5646 -0.1186,-1.071 -0.3953,-3.6357 -0.4609,-6.273 C 14.6711,7.85889 14.9343,7.07442 14.4735,5.79123 14.3572,5.47132 14.1351,5.23948 13.8457,5.08211 Z"
     stroke="#f9bf2e"
     stroke-miterlimit="10"
     stroke-linecap="round"
     stroke-linejoin="round"
     id="path837" />
  <path
     d="m 19.8896,4.07512 c 0,0 1.0395,-1.63394 2.4234,-1.42008 1.3832,0.21387 3.0296,1.71093 2.8321,4.91883 -0.1975,3.20793 -0.8563,4.49113 -0.9226,7.27123 -0.0663,2.7803 -1.3833,4.3483 -2.569,4.4201 -1.186,0.071 -1.5085,-0.6005 -1.5765,-1.6031"
     stroke="#f9bf2e"
     stroke-miterlimit="10"
     stroke-linecap="round"
     stroke-linejoin="round"
     id="path839" />
  <path
     d="m 6.68865,15.5209 c 0,0 -2.16374,0.1763 -3.54717,0"
     stroke="#f9bf2e"
     stroke-miterlimit="10"
     stroke-linecap="round"
     stroke-linejoin="round"
     id="path843" />
  <path
     d="m 6.12933,14.3465 c 0,0 -1.60403,-0.7845 -2.19696,-1.6399"
     stroke="#f9bf2e"
     stroke-miterlimit="10"
     stroke-linecap="round"
     stroke-linejoin="round"
     id="path845" />
  <path
     id="path1452"
     stroke-linejoin="round"
     stroke-linecap="round"
     stroke-miterlimit="10"
     stroke="#feebbb"
     d="m 23.926281,17.983071 c 0,0 0.108,1.9328 1.649,1.8509 1.5411,-0.0819 2.2979,-0.4901 3.1628,-0.8439 0.8648,-0.3538 2.2712,-1.4971 3.9469,-1.5791 1.6757,-0.0812 3.8655,-0.0543 4.4063,0.9802 0.5408,1.0339 -0.5674,1.5784 -1.3783,1.6603 0,0 -0.8922,0.0819 -1.4596,0.3806 -0.5682,0.2994 -1.5137,1.2253 -3.1361,1.7422 -1.6217,0.5177 -3.1368,1.2253 -4.0017,2.096 -0.8648,0.8707 -1.8117,1.4427 -2.9733,2.2047 -1.163,0.7627 -2.1898,2.0416 -3.0281,2.8304 -0.8382,0.7896 -2.4008,1.3065 -2.6464,3.7838 -0.2462,2.4766 0.2406,12.03 0.3219,13.8265 0.0807,1.7966 0.6489,5.6065 0.6489,5.6065"
     sodipodi:nodetypes="cscccccccccccc" />
</svg>
