<svg width="34" height="60" viewBox="0 0 34 60" fill="none" xmlns="http://www.w3.org/2000/svg">
<path d="M2.25438 57.911C2.25438 57.911 2.09164 48.9297 2.25438 43.7039C2.41641 38.478 2.74046 39.0493 2.25438 37.1716C1.76759 35.2931 0.631966 31.0475 1.11876 27.4551C1.60556 23.862 1.79495 22.0662 2.51074 20.8409C2.51074 20.8409 3.95744 18.8406 5.13266 19.1263C6.30932 19.4126 7.72794 20.0245 7.72794 20.0245C7.72794 20.0245 8.17441 20.3109 8.33644 21.7805C8.49918 23.2501 8.94493 24.0258 9.26898 24.7603C9.59303 25.4947 9.75577 28.8428 9.75577 28.8428C9.75577 28.8428 9.63408 29.5366 8.9046 29.5779C8.17441 29.6192 7.20154 29.1284 6.59233 27.4551C5.98456 25.7811 5.8254 25.1278 5.3775 24.3521C4.92959 23.5763 4.56522 22.8825 4.56522 22.8825" stroke="#FEEBBB" stroke-miterlimit="10" stroke-linecap="round" stroke-linejoin="round"/>
<path d="M3.26758 24.1483C3.26758 24.1483 4.68979 24.6384 5.3775 24.6384" stroke="#FEEBBB" stroke-miterlimit="10" stroke-linecap="round" stroke-linejoin="round"/>
<path d="M7.60254 19.9716C7.60254 19.9716 8.54012 19.0045 8.78352 18.5144C9.02692 18.0243 9.87881 17.5342 11.6625 17.6574C13.447 17.7799 12.6764 21.8218 12.6764 22.1068C12.6764 22.3924 12.5137 24.2303 12.5951 25.6179C12.6764 27.0063 12.9198 28.1083 12.9198 28.1083C13.0005 29.0066 12.3898 29.7193 11.4191 29.823C9.8788 29.9861 9.75639 28.8428 9.75639 28.8428L9.66997 27.5087" stroke="#FEEBBB" stroke-miterlimit="10" stroke-linecap="round" stroke-linejoin="round"/>
<path d="M8.93188 19.9977C8.93188 19.9977 8.91316 20.4341 8.98517 21.5354C9.05718 22.6418 9.49141 25.7789 9.49141 25.7789" stroke="#FEEBBB" stroke-miterlimit="10" stroke-linecap="round" stroke-linejoin="round"/>
<path d="M12.8399 20.1072C12.8399 20.1072 12.7211 17.93 12.8399 17.1129" stroke="#FEEBBB" stroke-miterlimit="10" stroke-linecap="round" stroke-linejoin="round"/>
<path d="M11.2024 17.6379C11.2024 17.6379 12.9055 15.452 13.6083 15.2069C14.3111 14.9619 16.3116 14.4181 16.987 15.9964C17.6632 17.5748 16.9064 20.8409 16.7163 22.1198C16.5269 23.3995 16.2835 23.3726 16.0142 25.5498C15.7434 27.727 14.9931 28.5143 14.2326 28.5165C13.0941 28.5194 12.8399 27.8633 12.7953 27.437" stroke="#FEEBBB" stroke-miterlimit="10" stroke-linecap="round" stroke-linejoin="round"/>
<path d="M15.7787 14.9822V12.731C15.7787 12.731 15.9602 10.825 16.1769 9.98183C16.393 9.13793 16.4477 6.79761 16.4477 6.30751V2.76949C16.4477 2.76949 16.2316 1.02732 17.6099 1.0005C18.9889 0.97367 19.6104 2.03434 19.6378 4.59287C19.6651 7.15141 19.8272 11.8871 19.8272 13.248C19.8272 14.6088 19.6925 16.3785 19.7191 18.4462C19.7458 20.5154 19.6104 23.1544 19.6918 24.4609C19.6918 24.4609 19.7998 26.3937 21.3408 26.3118C22.8819 26.2299 23.6387 25.8217 24.5036 25.4679C25.3684 25.1141 26.7748 23.9708 28.4505 23.8888C30.1262 23.8076 32.316 23.8345 32.8568 24.869C33.3976 25.9029 32.2894 26.4474 31.4785 26.5293C31.4785 26.5293 30.5863 26.6112 30.0189 26.9099C29.4507 27.2093 28.5052 28.1352 26.8828 28.6521C25.2611 29.1698 23.746 29.8774 22.8811 30.7481C22.0163 31.6188 21.0694 32.1908 19.9078 32.9528C18.7448 33.7155 17.718 34.9944 16.8797 35.7832C16.0415 36.5728 14.4789 37.0897 14.2333 39.567C13.9871 42.0436 14.4739 51.597 14.5552 53.3935C14.6359 55.1901 15.2041 59 15.2041 59" stroke="#FEEBBB" stroke-miterlimit="10" stroke-linecap="round" stroke-linejoin="round"/>
</svg>
