<svg width="29" height="60" viewBox="0 0 29 60" fill="none" xmlns="http://www.w3.org/2000/svg">
<path d="M2.58409 56.9385C2.58409 56.9385 2.24807 51.1936 2.58409 47.3991C2.91936 43.6053 2.58408 40.4617 1.80003 38.5106C1.01674 36.5594 0.00942595 31.14 1.80003 23.0101C3.59139 14.8802 3.59139 17.9153 4.70996 12.0619C5.82853 6.20858 6.38931 0.788904 8.6272 1.22201C10.8658 1.65584 8.85121 5.99163 8.6272 7.2919C8.40393 8.59289 8.5152 11.1941 8.06792 14.23C7.62064 17.2652 8.85122 18.7824 8.85122 18.7824" stroke="#FEEBBB" stroke-miterlimit="10" stroke-linecap="round" stroke-linejoin="round"/>
<path d="M14.3358 23.6602C14.0281 20.7871 14.0558 18.1858 14.0558 18.1858C14.0558 14.9337 13.1321 14.9337 11.5371 15.0154C9.94289 15.0964 8.08582 16.8197 8.08582 16.8197" stroke="#FEEBBB" stroke-miterlimit="10" stroke-linecap="round" stroke-linejoin="round"/>
<path d="M13.0566 15.1362C13.0566 15.1362 14.1125 12.929 15.7351 13.0375C17.3577 13.146 18.701 13.7665 18.701 15.1362C18.701 16.5059 18.3097 18.078 18.0297 20.6793C17.7497 23.2813 17.9737 27.7794 17.9737 27.7794C17.9737 27.7794 18.1977 30.0017 16.1831 29.8932C14.1678 29.7848 13.9445 28.2676 14.0557 26.9131C14.0557 26.9131 14.3358 25.3951 14.3358 23.6609" stroke="#FEEBBB" stroke-miterlimit="10" stroke-linecap="round" stroke-linejoin="round"/>
<path d="M9.24329 20.0834C9.24329 20.0834 9.80258 22.9283 10.055 23.7686C10.3066 24.609 9.97057 29.3783 11.8456 29.5953C13.7205 29.8115 14.0424 29.4853 14.0349 27.5617" stroke="#FEEBBB" stroke-miterlimit="10" stroke-linecap="round" stroke-linejoin="round"/>
<path d="M17.9282 26.5847C17.9282 26.5847 17.8618 28.2126 19.5687 28.1591C21.2757 28.1048 21.9194 26.6679 22.0874 25.3676C22.2546 24.0666 22.5623 21.7633 22.7871 21.0047C22.9356 20.5028 23.2791 18.862 23.4949 17.809C23.6047 17.2703 23.6824 16.8855 23.6824 16.8855C23.6824 16.8855 24.0736 14.8534 21.555 14.149C19.0371 13.4447 18.6936 15.4515 18.6936 15.4515" stroke="#FEEBBB" stroke-miterlimit="10" stroke-linecap="round" stroke-linejoin="round"/>
<path d="M23.7033 16.641C23.7033 16.641 25.9195 13.7144 27.0672 13.7144C28.2142 13.7144 28.8018 14.5547 27.8513 16.3156C26.8992 18.0773 27.3189 20.2453 27.3189 20.2453C27.3189 20.2453 27.4309 21.3026 27.1232 22.4677C26.8148 23.6334 26.3676 27.2645 26.3392 28.6464C26.3108 30.0284 26.3952 30.5441 25.1639 31.4647C23.9333 32.386 21.3863 34.5266 20.4917 35.5296C19.5964 36.5327 18.8684 37.3455 17.4698 38.5105C16.0704 39.6756 16.5177 41.3287 16.5177 42.3853C16.5177 43.4418 17.077 50.8132 17.1054 53.7673C17.1338 56.7208 17.8327 59.0515 17.8327 59.0515" stroke="#FEEBBB" stroke-miterlimit="10" stroke-linecap="round" stroke-linejoin="round"/>
<path d="M6.79553 21.4654C6.79553 21.4654 7.97908 22.3389 9.67486 22.1726" stroke="#FEEBBB" stroke-miterlimit="10" stroke-linecap="round" stroke-linejoin="round"/>
<path d="M23.1761 19.3276C23.1761 19.3276 23.2359 20.4767 23.7033 21.0791" stroke="#FEEBBB" stroke-miterlimit="10" stroke-linecap="round" stroke-linejoin="round"/>
</svg>
