<svg width="47" height="44" viewBox="0 0 47 44" fill="none" xmlns="http://www.w3.org/2000/svg">
<path d="M15.4156 38.4173C15.7163 38.1124 15.7163 37.1977 15.7163 36.5879C15.4156 35.6732 15.1149 34.7585 14.8141 34.4536C13.3105 33.234 12.1076 34.4536 11.8068 34.4536C11.5061 34.4536 11.5061 34.7585 11.5061 35.0634C11.5061 35.3683 11.2054 35.6732 11.2054 35.9781C10.0024 36.283 9.7017 36.5879 9.40096 37.1977C9.40096 37.1977 9.40096 37.5026 9.10023 37.5026C8.7995 38.1124 8.7995 39.0271 8.7995 39.6369C9.10023 40.2467 9.40096 41.1614 9.70169 41.4663C9.70169 41.4663 10.0024 41.7712 10.3032 41.7712C10.6039 42.0761 11.5061 42.0761 12.1076 42.0761C12.4083 42.0761 13.0098 42.0761 13.3105 41.7712C13.6112 41.7712 14.2127 41.4662 14.2127 41.1613C15.1149 40.5516 14.8141 39.0271 14.8141 38.4173C14.8141 38.4173 14.8141 38.1124 15.1149 38.1124C15.1149 38.7222 15.4156 38.4173 15.4156 38.4173ZM14.2127 37.5026C14.2127 37.8075 13.9119 38.1124 13.6112 38.4173C13.3105 38.7222 13.3105 39.332 13.3105 39.332C13.3105 39.6369 13.6112 40.8565 13.6112 40.8565C13.3105 40.8565 13.0097 41.1614 13.0097 41.4663C13.0097 41.4663 13.0097 41.4663 12.709 41.4663C12.4083 41.4663 12.1076 41.4663 11.8068 41.4663C11.5061 41.4663 10.9046 41.4663 10.9046 41.4663C10.9046 41.4663 10.9046 41.1613 10.6039 41.1613C10.3032 40.8565 10.0024 40.5516 10.0024 39.9418C10.0024 39.6369 10.0024 39.0271 10.0024 39.0271C10.3032 38.7222 10.3032 38.4173 10.3032 38.1124C10.3032 37.8075 10.6039 37.8075 11.2054 37.5026C11.5061 37.5026 11.8068 37.1977 11.8068 37.1977C11.8068 37.1977 11.8068 36.8928 12.1076 36.8928C12.4083 36.5879 12.4083 35.9781 12.709 35.6732C13.0097 35.6732 13.3105 35.3683 13.6112 35.6732C13.6112 35.6732 13.9119 36.283 14.2127 37.1977V37.5026Z" fill="white"/>
<path d="M2.78482 39.9418C3.38628 40.5516 3.98775 40.8565 5.79214 40.5516C6.3936 40.5516 6.69433 39.9418 6.99507 39.6369C7.2958 39.0271 7.2958 38.4173 7.2958 38.1124C7.2958 37.8075 7.2958 37.8075 7.2958 37.5026C7.2958 36.5879 7.2958 35.6732 6.99507 35.0634C6.99507 35.0634 6.99507 34.7585 6.99507 34.4536C6.99507 33.5389 6.99507 32.6242 6.09287 32.0144C5.79214 32.0144 5.79214 31.7095 5.49141 31.7095C4.28848 30.7948 3.68701 30.4899 1.88262 31.4046C1.58189 31.7095 1.28115 32.0144 0.980421 32.6242C0.679689 33.234 0.679688 33.5389 0.679688 34.1487C0.679688 34.4536 0.679688 34.7585 0.679688 35.0634C0.679688 35.3683 0.679688 35.6732 0.679688 35.9781C0.679688 36.283 0.679688 36.8928 0.679688 37.1977C0.679688 37.8075 0.980421 38.7222 0.980421 38.7222C0.980421 39.0271 0.980422 39.332 1.28115 39.332C1.58189 39.6369 1.58189 39.9418 1.88262 39.9418C2.18335 39.6369 2.48408 39.9418 2.78482 39.9418ZM2.18335 38.1124C2.18335 37.8075 2.18335 37.8075 2.18335 38.1124C1.88262 37.5026 1.88262 36.8928 1.88262 36.283L2.18335 38.1124ZM1.28115 34.1487C1.58189 34.1487 1.88262 33.8438 1.88262 33.5389C1.88262 33.234 1.88262 32.9291 2.18335 32.6242C2.18335 32.3193 2.48408 32.0144 2.48408 32.0144C3.38628 31.4046 3.68701 31.7095 4.58921 32.3193C4.88994 32.3193 4.88994 32.6242 5.19067 32.9291C5.4914 32.9291 5.49141 33.5389 5.49141 34.1487C5.49141 34.7585 5.49141 35.0634 5.49141 35.3683C5.49141 35.6732 5.49141 36.5879 5.49141 37.1977C5.49141 37.5026 5.49141 37.8075 5.49141 37.8075C5.49141 38.1124 5.4914 38.4173 5.19067 38.7222C5.19067 39.0271 4.88994 39.0271 4.88994 39.0271C3.98774 39.332 3.68701 39.0271 3.38628 38.7222C3.08555 38.4173 2.78482 38.1124 1.88262 37.8075L1.58189 35.0634C1.58189 34.7585 1.58189 34.4536 1.58189 34.1487C1.88262 34.1487 0.67969 34.4536 1.28115 34.1487Z" fill="white"/>
<path d="M16.017 22.8675C16.6185 23.4773 17.2199 24.392 18.4229 24.6969C19.3251 24.6969 19.9265 24.6968 20.528 24.3919C21.1295 24.087 21.4302 23.7822 22.0316 23.1724C22.0316 23.1724 22.0316 23.1724 22.0316 22.8675C22.3324 22.5626 22.3324 21.6479 22.6331 21.0381C22.6331 20.1234 22.9338 19.2087 22.6331 18.9038C22.6331 18.5989 22.6331 18.5989 22.6331 18.294C22.6331 17.9891 22.6331 17.6842 22.3324 17.3793C22.3324 17.3793 22.3324 17.3793 22.3324 17.0744C22.3324 16.7695 22.3324 16.4646 22.0316 15.8548L21.7309 15.5499C21.4302 15.245 21.4302 14.9401 20.8287 14.6352C20.528 14.3303 20.528 14.0254 19.9265 14.0254C19.6258 14.0254 19.3251 13.7205 19.0243 13.7205C18.4229 13.7205 18.1221 13.7205 17.5207 13.7205C17.5207 13.7205 17.5207 13.7205 17.2199 13.7205C16.6185 13.7205 15.7163 14.0254 15.1148 14.6352C13.9119 15.8548 13.9119 17.0744 13.6111 18.5989V18.9038C13.6111 19.2087 13.6111 19.2087 13.6111 19.2087C13.6111 19.5136 13.9119 20.1234 14.2126 20.4283C14.2126 20.4283 14.2126 20.7332 14.5133 20.7332C14.8141 21.0381 15.1148 21.0381 15.1148 21.0381C15.7163 22.2577 16.017 22.5626 16.017 22.8675ZM15.1148 20.1234C15.1148 20.1234 15.1148 19.8185 15.1148 20.1234V19.8185C15.4155 18.5989 15.4155 17.6842 16.3177 16.4646C16.6185 16.1597 17.2199 16.1597 17.5207 15.8548C17.8214 15.8548 18.1221 15.8548 18.1221 15.5499C18.1221 15.5499 18.4229 15.5499 18.7236 15.5499C19.0243 15.5499 19.3251 15.5499 19.3251 15.8548C19.3251 16.1597 19.6258 16.1597 19.6258 16.1597C19.9265 16.4646 20.2273 16.4646 20.2273 16.7695C20.2273 17.0744 20.528 17.0744 20.528 17.3793C20.528 17.3793 20.528 17.3793 20.528 17.6842C20.528 17.9891 20.528 17.9891 20.528 18.294C20.528 18.5989 20.528 18.5989 20.528 18.9038C20.528 19.2087 20.528 19.5136 20.8287 19.8185C20.8287 19.8185 20.8287 20.4283 20.8287 21.0381C20.8287 21.6479 20.528 22.2577 20.528 22.2577C20.2273 22.5626 19.9265 22.8675 19.6258 22.8675C19.3251 23.1724 19.0243 23.1724 18.4229 22.8675C17.5207 22.8675 17.2199 22.2577 16.9192 21.6479C16.6185 21.0381 16.3177 20.7332 15.7163 20.4283H15.4155C15.7163 20.4283 15.4155 20.1234 15.1148 20.1234Z" fill="white"/>
<path d="M22.6331 33.8438C22.6331 33.234 22.6331 32.0144 22.6331 31.0997V30.4899C22.6331 30.185 22.6331 30.185 22.3324 29.8801C22.0317 29.2703 21.4302 27.7458 19.9265 27.7458C18.7236 27.7458 18.4229 28.3556 17.8214 28.9654C17.8214 29.2703 17.5207 29.2703 17.5207 29.5752C17.2199 29.8801 17.2199 29.8801 17.2199 30.185C17.2199 30.4899 16.9192 30.4899 16.9192 30.7948C16.6185 31.0997 16.3177 31.7095 16.3177 32.3193C16.3177 32.9291 16.3177 33.8438 16.3177 34.1487C16.3177 34.1487 16.6185 34.7585 16.9192 35.3683C17.2199 35.6732 17.2199 35.9781 17.2199 35.9781C17.2199 36.283 17.5207 36.5879 18.1221 36.5879C18.1221 36.5879 18.1221 36.5879 18.4229 36.5879C19.0243 36.5879 19.6258 36.5879 19.9265 36.5879H20.2273C20.528 36.5879 20.8287 36.283 20.8287 36.283C21.4302 35.9781 22.6331 35.3683 22.6331 33.8438ZM20.2273 35.0634H19.9265C19.6258 35.0634 19.0243 35.0634 18.7236 35.0634C18.7236 34.7585 18.4229 34.7585 18.4229 34.4536C18.1221 34.1487 17.8214 33.5389 17.8214 33.5389C17.8214 33.234 17.8214 32.9291 17.8214 32.6242C17.8214 32.3193 17.8214 32.0144 18.1221 31.7095C18.4229 31.4046 18.7236 31.0997 18.7236 30.7948V30.4899C19.0243 30.185 19.0243 29.8801 19.3251 29.8801C19.6258 29.5752 19.6258 29.2703 20.2273 29.2703C20.8287 29.2703 21.1295 29.8801 21.1295 30.4899V30.7948V31.0997C21.1295 32.0144 21.1295 32.9291 21.1295 33.5389C21.1295 34.4536 20.528 35.0634 20.2273 35.0634Z" fill="white"/>
<path d="M7.89719 22.5625C7.89719 22.2576 7.89719 22.2576 7.89719 21.9527C7.59646 21.038 7.59646 20.4282 6.39353 20.1233C6.39353 20.1233 6.0928 20.1233 5.79207 20.1233H5.49134C4.88987 20.1233 3.98767 20.7331 3.68694 21.038H3.38621C3.08548 21.038 2.48401 21.3429 2.18328 21.6478C2.18328 21.6478 1.88255 21.9527 1.58182 21.9527C0.67962 22.5625 0.0781564 22.8674 0.378889 24.3919C0.378889 24.6968 0.378889 25.0017 0.378889 25.3066C0.378889 25.6115 0.378887 25.9164 0.679619 25.9164C0.679619 26.2213 0.980352 26.5262 0.980352 26.5262C1.28108 27.136 1.88255 27.7458 2.78475 27.4409C3.08548 27.4409 3.08548 27.4409 3.38621 27.4409C4.28841 27.4409 5.1906 27.7458 5.79207 27.136C6.0928 27.136 6.0928 26.8311 6.39353 26.2213C6.39353 26.2213 6.39353 26.2213 6.39353 25.9164C6.69426 25.3066 6.995 24.6968 7.29573 23.7821C7.89719 23.7821 7.89719 22.8674 7.89719 22.5625ZM6.0928 24.087C5.79207 25.0017 5.49134 25.9164 5.49134 25.9164C5.1906 25.9164 5.1906 26.2213 4.88987 26.5262L4.58914 26.8311C4.58914 26.8311 3.98767 26.8311 3.38621 26.8311C3.08548 26.8311 2.78475 26.8311 2.48401 26.8311H2.18328H1.88255C1.88255 26.8311 1.58182 26.8311 1.58182 26.5262C1.58182 26.5262 1.58182 26.2213 1.28109 25.9164C1.28109 25.6115 1.28109 25.6115 1.28109 25.3066H0.679619C0.980351 25.3066 1.28109 24.6968 1.28109 24.3919C1.28109 24.087 1.58182 23.7821 1.88255 23.4772C2.18328 23.4772 2.48401 23.1723 2.48401 22.8674C2.78475 22.5625 3.08548 22.5625 3.38621 22.5625C3.68694 22.5625 3.98768 22.2576 4.28841 22.2576C4.58914 21.9527 4.88987 21.9527 5.49134 21.6478C5.49134 21.6478 5.49134 21.6478 5.79207 21.6478C6.0928 21.6478 6.39353 21.9527 6.39353 22.2576C6.39353 22.2576 6.39353 22.5625 6.39353 22.8674C6.69426 22.8674 6.39353 23.4772 6.0928 24.087Z" fill="white"/>
<path d="M8.49873 9.45187C8.198 9.45187 8.198 9.14697 7.59653 9.14697C4.28848 9.14697 3.68701 10.9764 3.68701 12.8058C3.68701 13.7205 3.98775 14.3303 3.98775 14.9401C3.98775 15.245 3.98775 15.245 3.98775 15.5499C4.28848 17.0744 4.58921 17.3793 5.79214 18.294C6.39361 18.9038 7.2958 19.2087 8.198 19.2087C9.1002 19.2087 10.0024 18.9038 10.9046 17.9891L11.2053 17.6842C11.8068 17.0744 12.1075 17.0744 12.1075 15.8548C12.1075 14.6352 11.5061 13.4156 11.2053 12.5009C10.3031 10.9764 8.49873 9.45187 8.49873 9.45187ZM10.0024 13.7205C10.3031 14.6352 10.9046 15.5499 10.9046 16.4646C10.9046 16.7695 10.9046 16.7695 10.6039 17.0744C10.6039 17.0744 10.3031 17.0744 10.3031 17.3793C9.70166 17.9891 9.1002 18.294 8.49873 18.294C7.89727 18.294 7.59653 17.9891 6.99507 17.6842C6.3936 17.0744 6.09287 16.7695 5.79214 15.8548C5.79214 15.8548 5.79214 15.5499 5.79214 15.245C5.79214 14.6352 5.49141 14.0254 5.49141 13.4156C5.49141 12.5009 5.79214 11.2813 7.89727 11.2813H8.198C7.89727 10.9764 9.1002 11.8911 10.0024 13.7205Z" fill="white"/>
<path d="M37.369 24.392C37.9705 23.7822 37.9705 22.8675 37.6698 21.9528C37.369 21.343 37.0683 20.4283 36.7676 20.1234C36.7676 20.1234 36.4668 19.8185 36.1661 19.8185C35.8654 19.5136 34.9632 19.5136 34.3617 19.5136C34.061 19.5136 33.4595 19.5136 33.1588 19.8185C32.8581 19.8185 32.2566 20.1234 32.2566 20.4283C31.3544 21.0381 31.6551 22.5626 31.6551 23.1724C31.6551 23.1724 31.6551 23.4773 31.3544 23.4773C31.3544 23.7822 31.0537 24.0871 31.0537 24.0871C30.7529 24.392 30.7529 25.3067 30.7529 25.9165C31.0537 26.8312 31.3544 27.7459 31.6551 28.0508C33.1588 29.2704 34.3617 28.0508 34.6625 28.0508C34.9632 28.0508 34.9632 27.7459 34.9632 27.441C34.9632 27.1361 35.2639 26.8312 35.2639 26.5263C36.4668 26.5263 36.7676 25.9165 37.0683 25.3067C37.0683 24.6969 37.369 24.6969 37.369 24.392ZM36.4668 23.4773C36.1661 23.7822 36.1661 24.0871 35.8654 24.392C35.8654 24.6969 35.5646 24.6969 34.9632 24.6969C34.6625 24.6969 34.3617 25.0018 34.3617 25.0018C34.3617 25.0018 34.3617 25.3067 34.061 25.3067C33.7603 25.6116 33.4595 26.2214 33.4595 26.5263C33.1588 26.5263 32.8581 26.8312 32.5573 26.5263C32.5573 26.5263 32.2566 25.9165 31.9559 25.0018V24.392C31.9559 24.392 32.2566 23.7822 32.5573 23.4773C32.8581 23.1724 32.8581 22.5626 32.8581 22.5626C32.8581 22.2577 32.5573 21.343 32.5573 21.343C32.8581 21.343 33.1588 21.0381 33.1588 21.0381C33.1588 21.0381 33.1588 21.0381 33.4595 21.0381C33.7603 21.0381 34.061 21.0381 34.3617 21.0381C34.6625 21.0381 35.2639 21.0381 35.2639 21.0381C35.2639 21.0381 35.2639 20.7332 35.2639 21.0381C35.2639 21.0381 35.2639 21.343 35.5647 21.343C35.8654 21.6479 36.1661 21.9528 36.1661 22.5626C36.4668 22.8675 36.4668 23.1724 36.4668 23.4773Z" fill="white"/>
<path d="M28.9486 12.196C28.3471 11.5862 27.7456 10.6715 26.5427 10.9764C25.9412 10.9764 25.3398 11.2813 24.7383 11.5862C24.4376 11.8911 24.1369 12.5009 23.8361 13.1107C23.8361 13.4156 23.8361 14.3303 23.8361 15.245C23.8361 16.1597 24.1369 16.7695 24.1369 17.0744C24.1369 17.3793 24.1368 17.3793 24.4376 17.6842C24.4376 17.9891 24.4376 17.989 24.7383 18.5988C24.7383 18.5988 24.7383 18.5989 24.7383 18.9038C24.7383 19.2087 25.039 19.5136 25.3398 19.8185L25.6405 20.1233C25.9412 20.4282 25.9412 20.7331 26.5427 20.7331C26.8434 21.038 27.1442 21.038 27.4449 21.038C27.7456 21.038 28.0464 21.038 28.3471 21.038C28.9486 21.038 29.2493 21.038 29.55 20.7331H29.8508C30.4522 20.4282 31.0537 20.1233 31.3544 19.2086C31.9559 17.6842 31.9559 16.4646 31.9559 14.9401V14.6352V14.3303C31.9559 14.0254 31.6552 13.4156 31.0537 13.4156C31.0537 13.4156 31.0537 13.4156 30.753 13.1107C30.4522 13.1107 30.1515 12.8058 30.1515 12.8058C29.2493 12.8058 28.9486 12.5009 28.9486 12.196ZM29.8508 14.6352V14.9401C29.8508 16.1597 29.8508 17.3793 29.2493 18.5988C28.9486 18.9037 28.6478 19.2086 28.3471 19.2086C28.0464 19.2086 28.0464 19.5135 27.7456 19.5135C27.7456 19.5135 27.7456 19.5135 27.4449 19.5135H26.8434L26.5427 19.2086C26.242 19.2086 25.9412 18.9038 25.9412 18.9038C25.9412 18.9038 25.6405 18.5989 25.6405 18.294C25.6405 18.294 25.6405 18.2939 25.6405 17.989C25.6405 17.6841 25.6405 17.6842 25.3398 17.3793C25.3398 17.0744 25.039 17.0744 25.039 16.7695C25.039 16.4646 25.039 16.4646 24.7383 15.8548C24.7383 15.8548 24.7383 15.245 24.4376 14.3303C24.4376 13.7205 24.4376 13.1107 24.4376 13.1107C24.4376 12.8058 24.7383 12.5009 25.039 12.196C25.3398 11.8911 25.6405 11.8911 25.9412 11.8911C26.5427 11.8911 26.8434 12.196 27.1442 12.8058C27.4449 13.1107 28.0464 13.7205 28.6478 13.7205C28.6478 13.7205 28.6478 13.7205 28.9486 13.7205C29.2493 14.3303 29.55 14.6352 29.8508 14.6352Z" fill="white"/>
<path d="M38.572 28.0507C38.8727 29.2703 39.1735 30.185 40.9779 30.7948C41.2786 30.7948 41.8801 30.7948 42.4815 30.7948C42.7823 30.7948 43.3837 30.4899 43.6845 30.185C43.9852 30.185 43.9852 29.8801 44.2859 29.5752C44.5866 29.2703 44.5867 29.2703 44.5867 29.2703C44.8874 29.2703 45.1881 28.6605 45.4888 28.3556C45.7896 27.7458 46.0903 27.4409 46.391 27.136C46.391 26.8311 46.6918 26.8311 46.6918 26.5262C46.6918 26.2213 46.6918 25.9164 46.391 25.6115C46.0903 25.3066 46.0903 24.6968 46.0903 24.3919C45.7896 23.4772 45.7896 22.8674 44.2859 22.2576C43.9852 21.9527 43.3837 21.9527 42.7823 22.2576C42.1808 22.5625 41.8801 22.8674 41.5793 23.1723L41.2786 23.4772C40.6771 24.087 40.0757 24.6968 40.0757 25.3066L39.7749 25.6115C39.1735 26.2213 38.572 26.8311 38.8727 28.0507C38.2713 27.7458 38.572 27.7458 38.572 28.0507ZM40.0757 26.2213C40.3764 25.9164 40.6771 25.6115 40.6771 25.3066C40.6771 25.0017 41.2786 24.3919 41.5793 24.087C41.8801 23.7821 41.8801 23.7821 41.8801 23.7821C41.8801 23.7821 42.1808 23.4772 42.4815 23.4772H42.7823C43.6845 24.087 43.6845 24.3919 43.9852 24.6968C43.9852 25.0017 44.2859 25.6115 44.5867 26.2213C44.5867 26.2213 44.5867 26.2213 44.5867 26.5262C44.5867 26.8311 44.2859 27.136 43.9852 27.4409C43.6845 27.7458 43.6845 28.0507 43.6845 28.0507C43.3837 28.0507 43.083 28.3556 43.083 28.6605L43.3837 28.9654C43.083 28.9654 42.7823 28.9654 42.4815 29.2703C42.4815 29.2703 42.1808 29.5752 41.8801 29.5752C41.5793 29.5752 41.5793 29.5752 41.5793 29.5752C40.6771 29.2703 40.3764 28.6605 40.0757 28.0507C40.0757 27.7458 40.0757 27.7458 39.7749 27.4409C39.4742 26.8311 39.7749 26.5262 40.0757 26.2213Z" fill="white"/>
<path d="M25.9412 31.7095C27.1441 31.7095 27.4449 31.0997 28.0463 30.4899C28.0463 30.185 28.3471 30.185 28.3471 29.8801C28.6478 29.5752 28.6478 29.5752 28.6478 29.2703C28.6478 28.9654 28.9485 28.9654 28.9485 28.6605C29.2492 28.3556 29.55 27.7458 29.55 27.136C29.55 26.5262 29.55 25.6115 29.55 25.3066C29.55 25.3066 29.2492 24.6968 28.9485 24.087C28.6478 23.7821 28.6478 23.7821 28.6478 23.4772C28.6478 23.1723 28.3471 22.8674 28.0463 22.8674C28.0463 22.8674 28.0463 22.8674 27.7456 22.8674C27.1441 22.8674 26.5427 22.8674 26.2419 22.8674H25.9412C25.6405 22.8674 25.3397 23.1723 25.3397 23.1723C24.7383 23.4772 23.8361 24.3919 23.5353 25.9164C23.5353 26.5262 23.5353 27.7458 23.5353 28.6605V29.2703C23.5353 29.5752 23.5353 29.5752 23.8361 29.8801C23.8361 30.4899 24.4375 32.0144 25.9412 31.7095ZM25.039 26.2213C25.039 25.3066 25.9412 24.6968 26.2419 24.6968H26.5427H26.8434C27.1441 24.6968 27.7456 24.6968 28.0463 24.6968C28.0463 25.0017 28.3471 25.0017 28.3471 25.3066C28.6478 25.9164 28.9485 26.2213 28.9485 26.2213C28.9485 26.5262 28.9485 26.8311 28.9485 27.136C28.9485 27.4409 28.6478 27.7458 28.6478 28.0507C28.3471 28.3556 28.0463 28.6605 28.0463 28.9654V29.2703C27.7456 29.5752 27.7456 29.8801 27.4449 29.8801C27.1441 30.185 27.1441 30.4899 26.5427 30.4899C25.9412 30.4899 25.6405 29.8801 25.6405 29.2703V28.9654V28.6605C24.7383 27.7458 24.7383 26.8311 25.039 26.2213Z" fill="white"/>
<path d="M42.7822 40.8565C43.0829 40.8565 43.0829 40.8565 43.3837 40.8565C43.6844 40.8565 43.9851 40.8565 43.9851 40.8565C44.2859 40.8565 44.5866 40.8565 44.8873 40.8565C45.7895 40.5516 46.391 40.2467 46.391 39.332C46.391 39.332 46.391 39.3321 46.391 39.0272C46.391 38.4174 46.391 37.8076 46.391 37.1978C46.391 36.588 46.0903 36.2831 45.7895 35.9782C45.7895 35.6733 45.4888 35.3684 44.8873 35.3684C44.5866 35.0635 43.9851 34.4537 43.6844 34.1488C43.0829 33.8439 42.4815 33.2341 42.1807 33.2341C41.88 33.2341 41.88 33.2341 41.5793 33.2341C40.6771 33.2341 39.7749 33.2341 39.1734 34.4537C39.1734 34.7586 38.8727 34.7586 38.8727 35.0635C38.8727 35.3684 38.8727 35.3684 38.8727 35.6733C38.8727 36.2831 39.1734 36.8929 39.1734 37.5027C39.1734 37.5027 39.1734 37.8075 39.4741 38.1124C39.4741 38.4173 39.7749 39.0272 40.0756 39.332C40.0756 39.332 40.0756 39.637 40.3763 39.9419C40.9778 39.9419 41.2785 40.8565 42.7822 40.8565ZM40.6771 34.7586C40.9778 34.1488 41.2785 34.1488 41.88 34.1488C42.1807 34.1488 42.1807 34.1488 42.4815 34.1488L43.0829 34.7586C43.6844 35.3684 44.2859 35.6733 44.2859 35.6733C44.2859 35.9782 44.5866 36.2831 44.5866 36.2831C44.5866 36.2831 44.5866 36.588 44.8873 36.588C44.8873 36.588 45.1881 36.8929 45.1881 37.1978C45.1881 37.8076 45.1881 38.4174 45.1881 38.7223V39.0272V39.332C45.1881 39.332 44.8873 39.6369 44.5866 39.6369C44.2859 39.6369 44.2859 39.6369 43.9851 39.6369C43.6844 39.6369 43.6844 39.6369 43.3837 39.6369V39.9419C43.3837 39.637 43.0829 39.332 42.7822 39.332C42.4815 39.332 42.1807 39.0272 42.1807 38.4174C42.1807 38.1125 41.88 37.8076 41.88 37.8076C41.5793 37.5027 41.5793 37.1978 41.5793 36.8929C41.5793 36.588 41.2785 36.2831 41.2785 35.9782C40.6771 35.9782 40.6771 35.3684 40.6771 34.7586C40.6771 35.0635 40.6771 35.0635 40.6771 34.7586Z" fill="white"/>
<path d="M28.3471 43.2956C28.9486 42.9907 28.9486 42.6858 28.9486 42.3809C29.2493 41.7711 29.55 40.5515 28.9486 39.0271C28.6478 38.4173 28.0464 37.5026 27.4449 36.8928L27.1442 36.283C27.1442 35.9781 26.8434 35.9781 26.5427 35.9781C25.9412 35.6732 24.7383 34.7585 23.2347 35.6732C22.3325 36.5879 22.3325 36.8928 22.3325 37.8075C22.3325 38.1124 22.3325 38.1124 22.3325 38.4173C22.3325 38.7222 22.3325 39.0271 22.3325 39.0271C22.3325 39.332 22.3325 39.3319 22.3325 39.6368C22.3325 40.2466 22.3325 40.8564 22.6332 41.1613C22.9339 41.7711 23.2347 42.3809 23.8361 42.3809C24.1369 42.3809 24.4376 42.6858 25.039 42.9907C25.3398 43.2956 25.6405 42.9907 25.6405 43.2956C25.9412 43.6005 26.242 43.6005 26.5427 43.2956H26.8434C27.7456 43.9054 28.0464 43.6005 28.3471 43.2956ZM27.7456 41.7711L27.4449 42.076C27.1442 42.3809 26.8434 42.6858 26.5427 42.6858C26.242 42.6858 26.242 42.3809 25.9412 42.3809C25.3398 42.076 25.039 41.7711 24.7383 41.7711C24.7383 41.7711 24.4376 41.4662 24.1369 41.1613C23.8361 40.8564 23.8361 40.5515 23.8361 40.2467C23.8361 39.6369 23.8361 39.332 23.8361 39.0271V38.7222C23.8361 38.4173 23.8361 38.1124 23.8361 37.8075C23.8361 37.5026 23.8361 37.1977 24.4376 36.8928C25.039 36.5879 25.6405 36.8928 25.9412 37.1977C25.9412 37.1977 26.242 37.1977 26.242 37.5026L26.5427 37.8075C27.1442 38.4173 27.7456 39.027 27.7456 39.6368C28.0464 40.5515 27.7456 41.4662 27.7456 41.7711Z" fill="white"/>
<path d="M37.0683 36.5879C37.6697 36.283 37.9705 35.6732 37.9705 35.3683C37.9705 34.7585 37.9705 34.4536 37.9705 33.8438C37.9705 33.5389 37.6698 32.9291 37.6698 32.6242C37.369 32.3193 37.0683 32.0144 36.7676 31.7095C36.1661 31.4046 35.8654 30.7948 35.5646 30.4899L35.2639 30.185C34.6624 29.5752 33.7602 29.5752 32.5573 29.8801C31.6551 30.185 31.0536 30.7948 30.4522 31.0997C30.1514 31.4046 29.8507 32.0144 29.8507 32.6242C29.8507 33.234 29.8507 33.8438 29.8507 34.7585C29.8507 36.283 30.4522 36.8928 30.4522 37.1977C30.4522 37.1977 30.4522 37.5026 30.7529 37.5026C31.0536 37.8075 31.0536 37.8075 31.3544 37.8075C31.6551 37.8075 31.6551 38.1124 31.6551 38.1124C31.9558 38.1124 31.9558 38.1124 32.2566 38.1124C32.5573 38.1124 32.5573 38.1124 32.858 38.1124C33.4595 38.1124 33.7602 37.8075 34.061 37.5026C34.3617 37.1977 34.6624 37.1977 34.6624 37.1977C35.2639 37.5026 35.5646 37.1977 35.8654 37.1977C36.7676 37.1977 37.0683 36.8928 37.0683 36.5879ZM36.1661 35.6732C35.8654 35.6732 35.8654 35.6732 35.5646 35.6732C35.5646 35.6732 35.5646 35.6732 35.2639 35.6732C34.6624 35.3683 34.061 35.6732 33.4595 35.9781C33.1588 35.9781 32.858 36.283 32.858 36.283C32.5573 36.283 32.2566 36.283 32.2566 36.283C32.2566 36.283 31.9558 35.9781 31.6551 35.9781C31.6551 35.6732 31.3544 35.3683 31.3544 34.4536C31.3544 33.5389 31.3544 32.9291 31.3544 32.6242C31.3544 32.3193 31.3544 32.3193 31.3544 32.3193C31.6551 32.0144 32.2566 31.7095 33.1588 31.4046C33.7602 31.0997 34.061 31.0997 34.061 31.0997L34.3617 31.4046C34.9632 32.0144 35.2639 32.6242 36.1661 33.234C36.1661 33.234 36.4668 33.5389 36.7676 33.8438V34.1487C36.7676 34.7585 36.7676 35.0634 36.7676 35.3683C36.7676 35.3683 36.4668 35.3683 36.1661 35.6732Z" fill="white"/>
<path d="M9.1002 29.2704C9.40093 29.2704 9.40093 29.5753 9.70166 29.5753C10.0024 29.8802 10.0024 29.8802 10.3031 29.8802C10.6039 29.8802 10.6039 29.8802 10.9046 30.1851C11.2053 30.49 11.8068 30.4899 12.4083 30.4899C13.0097 30.4899 13.6112 30.1851 13.9119 29.8802C13.9119 29.8802 14.5134 29.2703 14.8141 28.9655C15.1148 28.6606 14.8141 28.6606 15.1148 28.3557C15.4156 28.3557 15.7163 27.7459 15.4156 27.441C15.4156 27.441 15.4156 27.441 15.4156 27.1361C15.4156 27.1361 15.4156 27.1361 15.4156 26.8312C15.4156 26.2214 15.1148 25.6116 15.1148 25.0018V24.6969C15.1148 24.392 14.8141 24.392 14.8141 24.0871C14.5134 23.4773 13.6112 22.2577 12.1075 22.5626C11.5061 22.5626 10.6039 22.8675 10.0024 23.1724L9.40093 23.7822C9.1002 23.7822 9.1002 24.0871 8.79947 24.0871C8.198 24.6969 7.29581 25.3067 7.59654 27.1361C8.198 28.6606 8.49874 28.9655 9.1002 29.2704ZM10.0024 25.3067C10.0024 25.3067 10.0024 25.0018 10.0024 25.3067L10.6039 25.0018C11.2053 24.6969 11.8068 24.6969 12.4083 24.392C13.0097 24.392 13.6112 25.0018 13.9119 25.3067C13.9119 25.3067 13.9119 25.6116 14.2126 25.6116V25.9165C14.2126 26.5263 14.5134 26.8312 14.5134 27.441V27.7459L14.2126 28.0508C13.9119 28.3557 13.6112 28.9655 13.3105 28.9655C13.3105 28.9655 13.0097 28.9655 12.709 28.9655C12.4083 28.9655 12.1075 28.9655 12.1075 28.9655C11.8068 28.6606 11.5061 28.6606 11.2053 28.3557C10.9046 28.0508 10.6039 28.0508 10.6039 27.7459C10.3031 27.441 10.0024 27.441 10.0024 26.5263C9.1002 26.2214 9.70167 25.6116 10.0024 25.3067Z" fill="white"/>
<path d="M36.1662 10.6715C35.8654 10.6715 35.8654 10.9764 35.5647 11.2813C35.5647 11.2813 35.5647 11.2813 35.5647 11.5862V11.2813C34.9632 11.8911 33.7603 12.8058 34.061 14.9401C34.3618 16.7695 34.9632 17.0744 35.5647 17.3793C35.8654 17.3793 35.8654 17.6842 36.1662 17.9891C36.4669 18.294 36.7676 18.294 37.0683 18.294C37.3691 18.294 37.6698 18.294 37.6698 18.5989C38.2713 18.9038 38.8727 19.2087 39.4742 19.2087C40.0757 19.2087 40.9779 18.9038 41.2786 18.5989C41.2786 18.5989 41.8801 17.9891 42.1808 17.3793C42.4815 17.0744 42.4815 16.7695 42.4815 16.7695C42.7823 16.7695 43.083 16.1597 43.083 15.8548V15.5499C43.083 15.5499 43.083 15.5499 43.083 15.245C43.083 14.6352 42.7823 13.7205 42.7823 13.1107V12.5009C42.7823 12.196 42.4815 11.8911 42.1808 11.8911C41.5793 11.2813 40.6771 9.75679 38.8727 10.0617C37.9705 10.0617 37.0683 10.3666 36.1662 10.6715C36.4669 10.6715 36.7676 10.6715 36.1662 10.6715ZM37.3691 11.8911C38.2713 11.5862 39.1735 11.2813 39.7749 11.2813C40.6771 11.2813 41.2786 12.196 41.8801 12.5009L42.1808 12.8058V13.1107C42.4815 13.7205 42.4815 14.6352 42.4815 14.9401V15.245V15.5499C42.1808 15.8548 42.1808 15.8548 41.8801 16.1597C41.5793 16.7695 40.9779 17.3793 40.9779 17.3793C40.9779 17.3793 40.3764 17.6842 40.0757 17.6842C39.7749 17.6842 39.4742 17.6842 39.1735 17.3793C38.572 17.0744 38.2713 16.7695 37.9705 16.7695H37.6698C37.3691 16.4646 37.0683 16.4646 36.7676 16.1597C36.1661 15.8548 35.8654 15.5499 35.8654 14.6352C35.5647 13.4156 36.4669 12.5009 36.7676 12.196L37.0683 11.8911H37.3691Z" fill="white"/>
<path d="M23.2347 10.6715C23.5354 10.6715 23.5354 10.3666 23.5354 10.0617C23.5354 9.75679 23.8362 9.4519 24.1369 9.147C25.3398 9.4519 25.9413 8.84209 26.242 8.53719L26.5428 8.2323C27.1442 7.9274 27.4449 7.0127 27.4449 6.098C27.4449 5.4882 27.1442 4.5735 26.8435 3.9637C26.8435 3.9637 26.5428 3.6588 26.5428 3.3539C26.5428 2.7441 25.9413 2.4392 25.0391 2.4392C24.7384 2.4392 24.1369 2.13431 23.8362 2.13431C23.5354 2.13431 22.934 2.1343 22.6332 2.4392C21.731 2.7441 21.4303 4.2686 21.1296 4.8784C21.1296 4.8784 21.1296 4.8784 20.8288 5.1833C20.5281 5.4882 20.5281 5.79309 20.5281 5.79309C19.9266 6.09799 19.9266 6.7078 19.9266 7.6225C19.9266 8.2323 19.9266 9.147 20.2274 9.7568C20.2274 9.7568 20.2274 9.75679 20.2274 10.0617C21.4303 11.5862 22.934 10.6715 23.2347 10.6715ZM21.4303 9.147C21.4303 8.8421 21.4303 8.2323 21.4303 7.6225V7.0127C21.731 7.0127 22.0318 6.4029 22.3325 6.098C22.6332 5.7931 22.934 5.4882 22.934 5.1833C22.934 4.8784 22.934 3.9637 23.2347 3.9637C23.5354 3.9637 23.8362 3.96371 23.8362 3.65881C23.8362 3.65881 23.8362 3.65881 24.1369 3.65881C24.4376 3.65881 24.7384 3.65881 25.0391 3.65881C25.3398 3.65881 25.9413 3.9637 25.9413 3.9637C25.9413 3.9637 25.9413 3.6588 25.9413 3.9637C25.9413 3.9637 25.9413 4.2686 26.242 4.5735C26.5428 4.8784 26.5428 5.18329 26.5428 5.79309C26.5428 6.09799 26.5428 6.7078 26.242 6.7078C25.9413 7.0127 25.6406 7.01269 25.6406 7.31759C25.3398 7.62249 25.3398 7.6225 24.4376 7.6225C24.1369 7.6225 23.8362 7.62249 23.8362 7.92739L23.5354 8.2323C23.2347 8.5372 22.934 8.84209 22.6332 9.45189C22.0318 9.45189 21.731 9.4519 21.4303 9.147Z" fill="white"/>
<path d="M33.1587 2.43918C31.9558 2.43918 31.6551 3.04898 31.0536 3.65878C31.0536 3.96368 30.7529 3.96367 30.7529 4.26857C30.4521 4.57347 30.4521 4.57347 30.4521 4.87837C30.4521 5.18327 30.1514 5.18327 30.1514 5.48817C29.8507 5.79307 29.5499 6.40287 29.5499 7.01267C29.5499 7.62247 29.5499 8.53716 29.5499 8.84206C29.5499 9.14696 29.8507 9.45187 30.1514 9.75677C30.4521 10.0617 30.4521 10.0617 30.4521 10.3666C30.4521 10.6715 30.7529 10.9764 31.0536 10.9764C31.0536 10.9764 31.0536 10.9764 31.3543 10.9764C31.9558 10.9764 32.5573 10.9764 32.858 10.9764H33.1587C33.4594 10.9764 33.7602 10.6715 33.7602 10.6715C34.3616 10.3666 35.2638 9.45186 35.5646 7.92737C35.5646 7.31757 35.5646 6.09798 35.5646 5.18328V4.57348C35.5646 4.26858 35.5646 4.26858 35.2638 3.96368C35.2638 3.65878 34.9631 2.43918 33.1587 2.43918ZM34.3616 8.23227C34.3616 9.14697 33.4594 9.75677 33.1587 9.75677H32.858C32.5573 9.75677 31.9558 9.75677 31.6551 9.75677L31.3543 9.14697L30.7529 8.23227C30.7529 7.92737 30.7529 7.62247 30.7529 7.31757C30.7529 7.01267 30.7529 6.70777 31.0536 6.40287C31.3543 6.09797 31.6551 5.79307 31.6551 5.48817V5.18328C31.9558 4.87838 31.9558 4.57348 32.2565 4.57348C32.5572 4.26858 32.5573 3.96368 33.1587 3.96368C33.7602 3.96368 34.0609 4.57348 34.0609 5.18328V5.48817V5.79307C34.6624 6.70777 34.6624 7.62247 34.3616 8.23227Z" fill="white"/>
<path d="M1.88262 2.1343C1.88262 2.1343 1.58189 2.43919 1.28116 2.43919C0.378963 3.04899 -0.222503 3.35389 0.0782292 4.87839C0.0782292 5.18329 0.0782292 5.48819 0.0782292 5.79309C0.0782292 6.09799 0.0782303 6.40289 0.378963 6.40289C0.378963 6.70779 0.679693 7.01269 0.679693 7.01269C0.980425 7.62249 1.58189 8.23229 2.48409 7.92739C2.78482 7.92739 2.78482 7.92739 3.08555 7.92739C3.98775 7.92739 4.88994 8.23229 5.49141 7.62249C5.79214 7.62249 5.79214 7.31759 6.09287 6.7078C6.39361 6.098 6.69434 5.48819 6.99507 4.57349C7.2958 3.6588 7.59653 3.04899 7.59653 2.43919C7.59653 2.1343 7.59653 2.13429 7.59653 1.82939C7.2958 0.914694 7.2958 0.3049 6.09287 0C6.09287 0 5.79214 0 5.49141 0H5.19068C4.58921 0 3.68702 0.609797 3.38628 0.914697H3.08555C2.78482 1.5245 2.18336 1.8294 1.88262 2.1343ZM3.68701 2.74409C3.98775 2.74409 4.28848 2.43919 4.58921 2.43919C4.88994 2.1343 5.19068 2.13429 5.79214 1.82939C5.79214 1.82939 5.79214 1.82939 6.09287 1.82939C6.39361 1.82939 6.69434 2.1343 6.69434 2.43919C6.69434 2.43919 6.69434 2.7441 6.69434 3.049C6.69434 3.049 6.39361 3.65879 6.39361 4.26859C6.09287 5.18329 5.79214 6.09799 5.79214 6.09799C5.49141 6.09799 5.49141 6.4029 5.19068 6.7078L4.88995 7.01269C4.88995 7.01269 4.28848 7.01269 3.68701 7.01269C3.38628 7.01269 3.08555 7.01269 2.78482 7.01269H2.48409H2.18335C2.18335 7.01269 1.88262 7.01269 1.88262 6.7078C1.28116 5.7931 1.58189 5.48819 1.58189 4.87839C1.58189 4.57349 1.88262 4.26859 2.18335 3.96369C2.48409 3.96369 2.48409 3.65879 2.78482 3.35389C3.08555 3.04899 3.38628 3.04899 3.68701 2.74409Z" fill="white"/>
<path d="M44.2859 2.7441C43.9851 2.13431 43.0829 0.91471 41.5793 1.21961C40.9778 1.21961 40.0756 1.52451 39.4741 1.82941L38.8727 2.13432C38.5719 2.13432 38.5719 2.43921 38.2712 2.43921C37.6697 3.04901 36.7675 3.65881 37.0683 5.4882C37.369 7.0127 37.6697 7.3176 38.2712 7.6225C38.5719 7.6225 38.5719 7.92739 38.8727 7.92739C39.1734 8.23229 39.1734 8.2323 39.4741 8.2323C39.7749 8.2323 39.7749 8.23229 40.0756 8.53719C40.3763 8.84209 40.9778 8.84209 41.5793 8.84209C42.1807 8.84209 42.7822 8.5372 43.0829 8.2323C43.0829 8.2323 43.6844 7.62249 43.9851 7.31759C44.2859 7.01269 43.9851 7.0127 44.2859 7.0127C44.5866 7.0127 44.8873 6.4029 44.5866 6.098C44.5866 6.098 44.5866 6.098 44.5866 5.7931V5.4882C44.5866 4.8784 44.2859 4.26861 44.2859 3.65881V3.35391C44.5866 3.04901 44.2859 2.7441 44.2859 2.7441ZM43.6844 5.4882C43.6844 5.4882 43.3837 5.4882 43.6844 5.4882L43.3837 6.098L42.7822 7.0127C42.7822 7.0127 42.4815 7.0127 42.1807 7.0127C41.88 7.0127 41.5793 7.0127 41.5793 7.0127C41.2785 6.7078 40.9778 6.7078 40.6771 6.4029C40.3763 6.098 40.0756 6.098 40.0756 5.7931C39.7749 5.4882 39.4741 5.4882 39.4741 4.57351C39.1734 3.65881 39.7749 3.35391 40.0756 3.04901C40.0756 3.04901 40.0756 3.049 40.3763 2.7441H40.6771C41.2785 2.43921 41.88 2.43922 42.4815 2.13432C43.0829 2.13432 43.6844 2.74411 43.9851 3.04901L44.2859 3.35391V3.65881C43.3837 4.57351 43.6844 4.8784 43.6844 5.4882Z" fill="white"/>
<path d="M10.6039 4.26865C10.3032 5.48825 10.6039 6.70785 10.9047 7.62255C11.5061 9.75685 12.7091 11.5862 12.7091 11.5862C13.0098 11.8911 13.0098 11.8911 13.3105 11.8911C16.6186 12.5009 17.5208 10.9764 17.8215 9.14705C18.1222 8.23235 18.1222 7.62255 18.1222 7.01275C18.1222 6.70785 18.1222 6.70785 18.1222 6.40295C18.1222 4.87845 17.8215 4.26865 17.22 3.35395C16.6186 2.74415 16.0171 2.13435 15.1149 1.82945C14.2127 1.52455 13.3105 1.82945 12.1076 2.43925L11.8069 2.74415C10.9047 3.04905 10.6039 3.35395 10.6039 4.26865ZM11.8069 4.57355C11.8069 4.26865 12.1076 4.26865 12.4083 4.26865C12.4083 4.26865 12.7091 4.26865 12.7091 3.96375C13.6113 3.65885 14.2127 3.35396 14.8142 3.65886C15.4157 3.65886 15.7164 3.96375 16.0171 4.57355C16.6186 5.48825 16.9193 5.79315 16.6186 6.70785C16.6186 6.70785 16.6186 7.01274 16.6186 7.31764C16.6186 7.92744 16.6186 8.53725 16.6186 9.14705C16.3179 10.0617 15.7164 10.9764 13.6113 10.6715C13.6113 10.6715 13.6113 10.6715 13.3105 10.3666C13.3105 10.3666 12.4083 9.14704 12.1076 7.31764C11.8069 6.40294 11.8069 5.48825 11.8069 4.57355Z" fill="white"/>
</svg>
